<svg width="27" height="27" viewBox="0 0 27 27" fill="none" xmlns="http://www.w3.org/2000/svg">
<path fill-rule="evenodd" clip-rule="evenodd" d="M6.92046 16.1362C9.21499 17.7748 11.5984 18.6409 13.8129 18.6409C16.0275 18.6409 18.4108 17.7747 20.7053 16.1362C22.4206 14.9113 23.4793 13.6977 23.5235 13.6467C23.7048 13.4374 23.7048 13.1268 23.5235 12.9175C23.4793 12.8664 22.4206 11.6529 20.7053 10.428C18.4108 8.78951 16.0274 7.9234 13.8129 7.9234C11.5984 7.9234 9.21504 8.78955 6.92046 10.428C5.20513 11.6529 4.14647 12.8665 4.10223 12.9175C3.921 13.1268 3.921 13.4374 4.10223 13.6467C4.14647 13.6978 5.20517 14.9113 6.92046 16.1362ZM7.58964 15.2456C6.52278 14.4864 5.71477 13.7187 5.28664 13.2822C5.71486 12.8455 6.52292 12.0778 7.58964 11.3188C9.05223 10.278 11.3191 9.03725 13.8128 9.03725C16.3065 9.03725 18.5735 10.278 20.036 11.3188C21.1029 12.078 21.9109 12.8456 22.339 13.2822C21.9108 13.7188 21.1027 14.4865 20.036 15.2456C18.5735 16.2863 16.3065 17.5271 13.8128 17.5271C11.3191 17.5271 9.05223 16.2863 7.58964 15.2456Z" fill="#486082"/>
<circle cx="13.9184" cy="13.2812" r="3.31731" fill="#486082"/>
<path d="M16.6904 13.4354C16.0763 13.4354 15.5767 12.9358 15.5767 12.3217C15.5767 11.7075 16.0763 11.2079 16.6904 11.2079C17.3046 11.2079 17.8042 11.7075 17.8042 12.3217C17.8042 12.9358 17.3046 13.4354 16.6904 13.4354Z" fill="white"/>
</svg>
