<svg width="20" height="23" viewBox="0 0 20 23" fill="none" xmlns="http://www.w3.org/2000/svg">
<path fill-rule="evenodd" clip-rule="evenodd" d="M9.64301 11.7513C8.97034 11.7505 8.36306 12.0227 7.92325 12.4617C7.48236 12.9024 7.20937 13.5118 7.20937 14.1845C7.20857 14.5858 7.306 14.9651 7.47719 15.298C7.60636 15.5495 7.77915 15.7761 7.98566 15.9679L7.98493 18.4309H7.98216H7.98493C7.98376 18.8032 8.13435 19.1404 8.37835 19.3835C8.6225 19.6283 8.96037 19.78 9.3326 19.78V19.7824V19.78L9.94767 19.7806C10.3005 19.7806 10.6214 19.6456 10.8611 19.4245L10.9031 19.3868C11.1459 19.1437 11.2968 18.8059 11.2976 18.432L11.2982 15.9687C11.5038 15.778 11.6764 15.5514 11.8066 15.2996C11.9787 14.9675 12.0753 14.5885 12.0764 14.1853C12.0764 13.5134 11.8042 12.9051 11.3652 12.4653C10.9254 12.0243 10.3159 11.7513 9.64301 11.7513ZM13.9329 9.32184V7.9323C13.9329 6.74847 13.4526 5.67641 12.6773 4.9007C11.9019 4.12551 10.8296 3.64551 9.64624 3.64551C8.46241 3.64551 7.39115 4.12551 6.61457 4.9007C5.83938 5.67641 5.35938 6.74847 5.35938 7.9323V9.32184H13.9329ZM17.1682 22.49H2.11638C1.53357 22.49 1.00398 22.2523 0.620534 21.8686C0.23716 21.4852 0 20.9564 0 20.3727V11.439C0 10.8553 0.23716 10.3263 0.620534 9.94289C0.912233 9.65119 1.28862 9.4433 1.70993 9.36109V7.93194C1.7108 6.85777 1.92539 5.83347 2.31233 4.90143C2.71558 3.93109 3.30706 3.05716 4.04126 2.32369C4.77284 1.59219 5.64735 1.00231 6.61791 0.599929C7.55104 0.213279 8.57527 -0.000798731 9.64922 2.23952e-06C10.7235 2.23952e-06 11.7478 0.215172 12.6799 0.602624C13.6493 1.00588 14.5239 1.59707 15.2575 2.33054C15.9891 3.06313 16.5787 3.93707 16.981 4.9074C17.368 5.84024 17.5815 6.86454 17.5815 7.9385L17.5809 9.36168C17.9993 9.44578 18.3735 9.65199 18.6642 9.94289C19.0478 10.3263 19.2847 10.8553 19.2847 11.439V20.3727C19.2847 20.9564 19.0478 21.4852 18.6642 21.8686C18.2808 22.2523 17.7513 22.49 17.1682 22.49Z" fill="white"/>
</svg>
